G04 MADE WITH FRITZING*
G04 WWW.FRITZING.ORG*
G04 DOUBLE SIDED*
G04 HOLES PLATED*
G04 CONTOUR ON CENTER OF CONTOUR VECTOR*
%ASAXBY*%
%FSLAX23Y23*%
%MOIN*%
%OFA0B0*%
%SFA1.0B1.0*%
%ADD10C,0.023622*%
%ADD11C,0.070000*%
%ADD12C,0.080000*%
%ADD13C,0.075000*%
%ADD14C,0.078000*%
%ADD15R,0.069972X0.070000*%
%ADD16R,0.080000X0.080000*%
%ADD17R,0.075000X0.075000*%
%ADD18C,0.050000*%
%ADD19C,0.016000*%
%ADD20C,0.024000*%
%ADD21C,0.012000*%
%LNCOPPER1*%
G90*
G70*
G54D10*
X1784Y416D03*
X1634Y417D03*
X1634Y515D03*
X1083Y565D03*
X1634Y316D03*
X1083Y316D03*
G54D11*
X1984Y1566D03*
X1984Y1466D03*
X1984Y1366D03*
X1984Y1266D03*
X1984Y1166D03*
X1984Y1066D03*
X1984Y966D03*
X1984Y866D03*
X1984Y766D03*
X1984Y666D03*
X1984Y566D03*
X1984Y466D03*
X1984Y366D03*
X1984Y266D03*
X1984Y166D03*
X2584Y1566D03*
X2584Y1466D03*
X2584Y1366D03*
X2584Y1266D03*
X2584Y1166D03*
X2584Y1066D03*
X2584Y966D03*
X2584Y866D03*
X2584Y766D03*
X2584Y666D03*
X2584Y566D03*
X2584Y466D03*
X2584Y366D03*
X2584Y266D03*
X2584Y166D03*
G54D10*
X1083Y467D03*
G54D12*
X184Y666D03*
X184Y866D03*
G54D11*
X684Y1566D03*
X684Y1466D03*
X684Y1366D03*
X684Y1266D03*
X684Y1166D03*
X684Y1066D03*
X684Y966D03*
X684Y866D03*
X684Y766D03*
X684Y666D03*
X684Y566D03*
X684Y466D03*
X684Y366D03*
X684Y266D03*
X684Y166D03*
X1284Y1566D03*
X1284Y1466D03*
X1284Y1366D03*
X1284Y1266D03*
X1284Y1166D03*
X1284Y1066D03*
X1284Y966D03*
X1284Y866D03*
X1284Y766D03*
X1284Y666D03*
X1284Y566D03*
X1284Y466D03*
X1284Y366D03*
X1284Y266D03*
X1284Y166D03*
G54D13*
X2784Y1266D03*
X2784Y1666D03*
X484Y1666D03*
X484Y1266D03*
G54D12*
X3084Y866D03*
X3084Y666D03*
X184Y1366D03*
X184Y1566D03*
X3084Y1566D03*
X3084Y1366D03*
X1734Y216D03*
X1534Y216D03*
G54D14*
X484Y416D03*
X484Y316D03*
X484Y216D03*
G54D13*
X1584Y666D03*
X1684Y666D03*
G54D14*
X1634Y916D03*
X1634Y1016D03*
X1634Y1116D03*
X1634Y1216D03*
X1634Y1316D03*
X1634Y1416D03*
X1634Y1516D03*
X1634Y1616D03*
X1634Y1716D03*
G54D15*
X1984Y1566D03*
G54D16*
X184Y666D03*
G54D15*
X684Y1566D03*
G54D16*
X3084Y866D03*
X184Y1366D03*
X3084Y1566D03*
X1734Y216D03*
G54D17*
X1584Y666D03*
G54D18*
X1734Y65D02*
X2685Y65D01*
G54D19*
D02*
X2935Y1565D02*
X3059Y1566D01*
D02*
X2808Y1666D02*
X2835Y1666D01*
G54D18*
D02*
X384Y116D02*
X434Y65D01*
D02*
X1734Y168D02*
X1734Y65D01*
D02*
X2685Y65D02*
X2735Y116D01*
D02*
X434Y65D02*
X1734Y65D01*
D02*
X2735Y815D02*
X2784Y865D01*
D02*
X1734Y65D02*
X1734Y168D01*
D02*
X384Y616D02*
X334Y666D01*
D02*
X384Y116D02*
X384Y616D01*
G54D20*
D02*
X384Y116D02*
X434Y65D01*
D02*
X1035Y65D02*
X1035Y1417D01*
D02*
X434Y65D02*
X1035Y65D01*
G54D19*
D02*
X284Y1265D02*
X202Y1348D01*
D02*
X461Y1266D02*
X284Y1265D01*
G54D21*
D02*
X2284Y1166D02*
X2335Y1216D01*
D02*
X2235Y267D02*
X2284Y315D01*
D02*
X2284Y315D02*
X2284Y1166D01*
D02*
X2008Y266D02*
X2235Y267D01*
D02*
X2335Y1216D02*
X2684Y1216D01*
D02*
X2684Y1216D02*
X2734Y1266D01*
G54D20*
D02*
X1705Y646D02*
X1735Y616D01*
D02*
X1735Y616D02*
X1734Y247D01*
G54D18*
D02*
X2735Y116D02*
X2735Y815D01*
D02*
X2784Y865D02*
X3037Y866D01*
D02*
X334Y666D02*
X232Y666D01*
G54D20*
D02*
X1184Y1567D02*
X1255Y1566D01*
D02*
X1035Y1417D02*
X1184Y1567D01*
G54D21*
D02*
X2734Y1266D02*
X2761Y1266D01*
G54D19*
D02*
X2835Y1666D02*
X2885Y1616D01*
D02*
X583Y467D02*
X583Y1515D01*
D02*
X634Y1565D02*
X661Y1566D01*
D02*
X583Y1515D02*
X634Y1565D01*
D02*
X535Y417D02*
X583Y467D01*
D02*
X509Y416D02*
X535Y417D01*
G54D20*
D02*
X1435Y1766D02*
X1485Y1816D01*
D02*
X1485Y1816D02*
X2385Y1816D01*
D02*
X1435Y1316D02*
X1435Y1766D01*
D02*
X2385Y1816D02*
X2435Y1766D01*
D02*
X1385Y1266D02*
X1435Y1316D01*
D02*
X2435Y1766D02*
X2435Y1316D01*
D02*
X1314Y1266D02*
X1385Y1266D01*
D02*
X2435Y1316D02*
X2485Y1266D01*
D02*
X2485Y1266D02*
X2555Y1266D01*
G54D21*
D02*
X1620Y316D02*
X1097Y316D01*
D02*
X1885Y565D02*
X1961Y566D01*
D02*
X1794Y426D02*
X1835Y467D01*
D02*
X1234Y417D02*
X1620Y417D01*
D02*
X1184Y467D02*
X1234Y417D01*
D02*
X1097Y467D02*
X1184Y467D01*
D02*
X1184Y565D02*
X1234Y515D01*
D02*
X1234Y515D02*
X1620Y515D01*
D02*
X1097Y565D02*
X1184Y565D01*
G54D19*
D02*
X2885Y1616D02*
X2935Y1565D01*
G54D21*
D02*
X1835Y515D02*
X1885Y565D01*
D02*
X1835Y467D02*
X1835Y515D01*
G04 End of Copper1*
M02*