; NON-PLATED HOLES START AT T1
; THROUGH (PLATED) HOLES START AT T100
M48
INCH
T1C0.125984
T100C0.035000
T101C0.036000
T102C0.038000
T103C0.015748
T104C0.040000
%
T1
X001344Y001159
X001344Y019159
X031344Y019159
X031344Y001159
T100
X016844Y006659
X015844Y006659
X027844Y012659
X004844Y016659
X004844Y012659
X027844Y016659
T101
X012844Y009659
X025844Y012659
X025844Y007659
X025844Y004659
X012844Y001659
X006844Y008659
X025844Y003659
X019844Y003659
X019844Y007659
X006844Y003659
X025844Y002659
X019844Y002659
X019844Y012659
X025844Y008659
X012844Y004659
X006844Y005659
X019844Y008659
X019844Y009659
X025844Y014659
X019844Y006659
X019844Y014659
X012844Y011659
X012844Y002659
X006844Y015659
X019844Y010659
X025844Y006659
X006844Y004659
X019844Y005659
X006844Y014659
X025844Y015659
X012844Y007659
X025844Y001659
X025844Y009659
X025844Y005659
X025844Y011659
X012844Y008659
X019844Y011659
X012844Y005659
X006844Y002659
X006844Y012659
X012844Y006659
X025844Y013659
X012844Y010659
X006844Y013659
X006844Y006659
X012844Y014659
X019844Y013659
X012844Y013659
X006844Y007659
X006844Y009659
X006844Y010659
X012844Y015659
X012844Y012659
X025844Y010659
X006844Y001659
X019844Y001659
X012844Y003659
X019844Y004659
X006844Y011659
X019844Y015659
T102
X016344Y017159
X016344Y011159
X016344Y010159
X004844Y002159
X004844Y004159
X016344Y012159
X016344Y009159
X004844Y003159
X016344Y014159
X016344Y013159
X016344Y016159
X016344Y015159
T103
X016336Y005150
X016336Y003164
X010833Y003164
X010833Y005652
X010833Y004670
X016336Y004168
X017844Y004159
T104
X001844Y013659
X030844Y006659
X030844Y008659
X030844Y013659
X030844Y015659
X001844Y006659
X001844Y008659
X001844Y015659
X015344Y002159
X017344Y002159
T00
M30
