G04 MADE WITH FRITZING*
G04 WWW.FRITZING.ORG*
G04 DOUBLE SIDED*
G04 HOLES PLATED*
G04 CONTOUR ON CENTER OF CONTOUR VECTOR*
%ASAXBY*%
%FSLAX23Y23*%
%MOIN*%
%OFA0B0*%
%SFA1.0B1.0*%
%ADD10C,0.033622*%
%ADD11C,0.080000*%
%ADD12C,0.090000*%
%ADD13C,0.085000*%
%ADD14C,0.135984*%
%ADD15C,0.088000*%
%ADD16R,0.079972X0.080000*%
%ADD17R,0.090000X0.090000*%
%ADD18R,0.085000X0.085000*%
%LNMASK0*%
G90*
G70*
G54D10*
X1784Y416D03*
X1634Y417D03*
X1634Y515D03*
X1083Y565D03*
X1634Y316D03*
X1083Y316D03*
G54D11*
X1984Y1566D03*
X1984Y1466D03*
X1984Y1366D03*
X1984Y1266D03*
X1984Y1166D03*
X1984Y1066D03*
X1984Y966D03*
X1984Y866D03*
X1984Y766D03*
X1984Y666D03*
X1984Y566D03*
X1984Y466D03*
X1984Y366D03*
X1984Y266D03*
X1984Y166D03*
X2584Y1566D03*
X2584Y1466D03*
X2584Y1366D03*
X2584Y1266D03*
X2584Y1166D03*
X2584Y1066D03*
X2584Y966D03*
X2584Y866D03*
X2584Y766D03*
X2584Y666D03*
X2584Y566D03*
X2584Y466D03*
X2584Y366D03*
X2584Y266D03*
X2584Y166D03*
G54D10*
X1083Y467D03*
G54D12*
X184Y666D03*
X184Y866D03*
G54D11*
X684Y1566D03*
X684Y1466D03*
X684Y1366D03*
X684Y1266D03*
X684Y1166D03*
X684Y1066D03*
X684Y966D03*
X684Y866D03*
X684Y766D03*
X684Y666D03*
X684Y566D03*
X684Y466D03*
X684Y366D03*
X684Y266D03*
X684Y166D03*
X1284Y1566D03*
X1284Y1466D03*
X1284Y1366D03*
X1284Y1266D03*
X1284Y1166D03*
X1284Y1066D03*
X1284Y966D03*
X1284Y866D03*
X1284Y766D03*
X1284Y666D03*
X1284Y566D03*
X1284Y466D03*
X1284Y366D03*
X1284Y266D03*
X1284Y166D03*
G54D13*
X2784Y1266D03*
X2784Y1666D03*
X484Y1666D03*
X484Y1266D03*
G54D12*
X3084Y866D03*
X3084Y666D03*
X184Y1366D03*
X184Y1566D03*
X3084Y1566D03*
X3084Y1366D03*
X1734Y216D03*
X1534Y216D03*
G54D14*
X3134Y116D03*
X134Y116D03*
X3134Y1916D03*
X134Y1916D03*
G54D15*
X484Y416D03*
X484Y316D03*
X484Y216D03*
G54D13*
X1584Y666D03*
X1684Y666D03*
G54D15*
X1634Y916D03*
X1634Y1016D03*
X1634Y1116D03*
X1634Y1216D03*
X1634Y1316D03*
X1634Y1416D03*
X1634Y1516D03*
X1634Y1616D03*
X1634Y1716D03*
G54D16*
X1984Y1566D03*
G54D17*
X184Y666D03*
G54D16*
X684Y1566D03*
G54D17*
X3084Y866D03*
X184Y1366D03*
X3084Y1566D03*
X1734Y216D03*
G54D18*
X1584Y666D03*
G04 End of Mask0*
M02*