G04 MADE WITH FRITZING*
G04 WWW.FRITZING.ORG*
G04 DOUBLE SIDED*
G04 HOLES PLATED*
G04 CONTOUR ON CENTER OF CONTOUR VECTOR*
%ASAXBY*%
%FSLAX23Y23*%
%MOIN*%
%OFA0B0*%
%SFA1.0B1.0*%
%ADD10C,0.023622*%
%ADD11C,0.070000*%
%ADD12C,0.080000*%
%ADD13C,0.075000*%
%ADD14C,0.078000*%
%ADD15R,0.069972X0.070000*%
%ADD16R,0.080000X0.080000*%
%ADD17R,0.075000X0.075000*%
%ADD18C,0.024000*%
%ADD19C,0.040000*%
%ADD20C,0.016000*%
%ADD21C,0.012000*%
%LNCOPPER0*%
G90*
G70*
G54D10*
X1784Y416D03*
X1634Y417D03*
X1634Y515D03*
X1083Y565D03*
X1634Y316D03*
X1083Y316D03*
G54D11*
X1984Y1566D03*
X1984Y1466D03*
X1984Y1366D03*
X1984Y1266D03*
X1984Y1166D03*
X1984Y1066D03*
X1984Y966D03*
X1984Y866D03*
X1984Y766D03*
X1984Y666D03*
X1984Y566D03*
X1984Y466D03*
X1984Y366D03*
X1984Y266D03*
X1984Y166D03*
X2584Y1566D03*
X2584Y1466D03*
X2584Y1366D03*
X2584Y1266D03*
X2584Y1166D03*
X2584Y1066D03*
X2584Y966D03*
X2584Y866D03*
X2584Y766D03*
X2584Y666D03*
X2584Y566D03*
X2584Y466D03*
X2584Y366D03*
X2584Y266D03*
X2584Y166D03*
G54D10*
X1083Y467D03*
G54D12*
X184Y666D03*
X184Y866D03*
G54D11*
X684Y1566D03*
X684Y1466D03*
X684Y1366D03*
X684Y1266D03*
X684Y1166D03*
X684Y1066D03*
X684Y966D03*
X684Y866D03*
X684Y766D03*
X684Y666D03*
X684Y566D03*
X684Y466D03*
X684Y366D03*
X684Y266D03*
X684Y166D03*
X1284Y1566D03*
X1284Y1466D03*
X1284Y1366D03*
X1284Y1266D03*
X1284Y1166D03*
X1284Y1066D03*
X1284Y966D03*
X1284Y866D03*
X1284Y766D03*
X1284Y666D03*
X1284Y566D03*
X1284Y466D03*
X1284Y366D03*
X1284Y266D03*
X1284Y166D03*
G54D13*
X2784Y1266D03*
X2784Y1666D03*
X484Y1666D03*
X484Y1266D03*
G54D12*
X3084Y866D03*
X3084Y666D03*
X184Y1366D03*
X184Y1566D03*
X3084Y1566D03*
X3084Y1366D03*
X1734Y216D03*
X1534Y216D03*
G54D14*
X484Y416D03*
X484Y316D03*
X484Y216D03*
G54D13*
X1584Y666D03*
X1684Y666D03*
G54D14*
X1634Y916D03*
X1634Y1016D03*
X1634Y1116D03*
X1634Y1216D03*
X1634Y1316D03*
X1634Y1416D03*
X1634Y1516D03*
X1634Y1616D03*
X1634Y1716D03*
G54D15*
X1984Y1566D03*
G54D16*
X184Y666D03*
G54D15*
X684Y1566D03*
G54D16*
X3084Y866D03*
X184Y1366D03*
X3084Y1566D03*
X1734Y216D03*
G54D17*
X1584Y666D03*
G54D18*
X1535Y616D02*
X1535Y247D01*
D02*
X1564Y646D02*
X1535Y616D01*
G54D19*
D02*
X2684Y65D02*
X1535Y65D01*
D02*
X1535Y65D02*
X1535Y174D01*
D02*
X3042Y666D02*
X2884Y666D01*
D02*
X385Y1516D02*
X385Y865D01*
D02*
X335Y1566D02*
X385Y1516D01*
D02*
X227Y1566D02*
X335Y1566D01*
G54D18*
D02*
X485Y186D02*
X485Y65D01*
G54D19*
D02*
X1134Y66D02*
X1535Y65D01*
D02*
X435Y65D02*
X1134Y66D01*
D02*
X1535Y65D02*
X1535Y174D01*
D02*
X385Y116D02*
X435Y65D01*
D02*
X385Y865D02*
X385Y116D01*
D02*
X385Y865D02*
X227Y866D01*
D02*
X1134Y66D02*
X1134Y1417D01*
D02*
X2734Y115D02*
X2684Y65D01*
D02*
X2734Y666D02*
X2734Y115D01*
D02*
X2884Y666D02*
X2734Y666D01*
D02*
X2734Y1015D02*
X2784Y1065D01*
D02*
X3042Y666D02*
X2734Y666D01*
D02*
X3042Y1366D02*
X2985Y1367D01*
D02*
X2935Y1467D02*
X2625Y1466D01*
G54D20*
D02*
X2083Y166D02*
X1984Y167D01*
D02*
X1984Y167D02*
X1975Y188D01*
G54D18*
D02*
X1634Y816D02*
X1634Y886D01*
D02*
X1583Y766D02*
X1634Y816D01*
D02*
X1584Y695D02*
X1583Y766D01*
G54D19*
D02*
X1184Y1466D02*
X1244Y1466D01*
D02*
X1134Y1417D02*
X1184Y1466D01*
G54D20*
D02*
X2134Y216D02*
X2083Y166D01*
G54D19*
D02*
X2734Y666D02*
X2734Y1015D01*
G54D20*
D02*
X583Y1417D02*
X634Y1467D01*
D02*
X634Y1467D02*
X661Y1467D01*
D02*
X583Y367D02*
X583Y1417D01*
D02*
X506Y327D02*
X583Y367D01*
G54D18*
D02*
X485Y65D02*
X435Y65D01*
G54D19*
D02*
X2985Y1367D02*
X2985Y1417D01*
D02*
X2985Y1417D02*
X2935Y1467D01*
D02*
X2985Y1367D02*
X3042Y1366D01*
D02*
X2935Y1065D02*
X2985Y1116D01*
D02*
X2985Y1116D02*
X2985Y1367D01*
D02*
X2784Y1065D02*
X2935Y1065D01*
G54D20*
D02*
X2134Y1716D02*
X2134Y216D01*
D02*
X1985Y1867D02*
X2134Y1716D01*
D02*
X734Y1867D02*
X1985Y1867D01*
D02*
X535Y1666D02*
X734Y1867D01*
D02*
X508Y1666D02*
X535Y1666D01*
D02*
X734Y1165D02*
X708Y1166D01*
D02*
X785Y1216D02*
X734Y1165D01*
D02*
X785Y1616D02*
X785Y1216D01*
D02*
X984Y1816D02*
X785Y1616D01*
D02*
X1434Y1816D02*
X984Y1816D01*
D02*
X1535Y1717D02*
X1434Y1816D01*
D02*
X1610Y1716D02*
X1535Y1717D01*
D02*
X1535Y1616D02*
X1610Y1616D01*
D02*
X1385Y1766D02*
X1535Y1616D01*
D02*
X1034Y1766D02*
X1385Y1766D01*
D02*
X834Y1567D02*
X1034Y1766D01*
D02*
X834Y1165D02*
X834Y1567D01*
D02*
X734Y1066D02*
X834Y1165D01*
D02*
X708Y1066D02*
X734Y1066D01*
D02*
X734Y966D02*
X708Y966D01*
D02*
X884Y1117D02*
X734Y966D01*
D02*
X884Y1516D02*
X884Y1117D01*
D02*
X1085Y1717D02*
X884Y1516D01*
D02*
X1335Y1717D02*
X1085Y1717D01*
D02*
X1535Y1516D02*
X1335Y1717D01*
D02*
X1610Y1516D02*
X1535Y1516D01*
D02*
X935Y1066D02*
X734Y865D01*
D02*
X734Y865D02*
X708Y866D01*
D02*
X935Y1466D02*
X935Y1066D01*
D02*
X1134Y1666D02*
X935Y1466D01*
D02*
X1284Y1666D02*
X1134Y1666D01*
D02*
X1535Y1417D02*
X1284Y1666D01*
D02*
X1584Y1417D02*
X1535Y1417D01*
D02*
X1610Y1416D02*
X1584Y1417D01*
G54D21*
D02*
X1885Y316D02*
X1647Y316D01*
D02*
X1935Y367D02*
X1885Y316D01*
D02*
X1070Y316D02*
X885Y316D01*
D02*
X835Y367D02*
X708Y366D01*
D02*
X1961Y366D02*
X1935Y367D01*
D02*
X885Y316D02*
X835Y367D01*
D02*
X708Y566D02*
X1070Y565D01*
D02*
X708Y466D02*
X1070Y467D01*
G54D20*
D02*
X1584Y1316D02*
X1334Y766D01*
D02*
X1334Y766D02*
X1308Y766D01*
D02*
X1610Y1316D02*
X1584Y1316D01*
D02*
X1584Y1216D02*
X1334Y666D01*
D02*
X1334Y666D02*
X1308Y666D01*
D02*
X1610Y1216D02*
X1584Y1216D01*
D02*
X1334Y566D02*
X1308Y566D01*
D02*
X1584Y1116D02*
X1334Y566D01*
D02*
X1610Y1116D02*
X1584Y1116D01*
D02*
X1584Y1015D02*
X1334Y467D01*
D02*
X1334Y467D02*
X1308Y466D01*
D02*
X1610Y1016D02*
X1584Y1015D01*
G54D21*
D02*
X1935Y467D02*
X1961Y467D01*
D02*
X1885Y515D02*
X1935Y467D01*
D02*
X1647Y515D02*
X1885Y515D01*
D02*
X1647Y417D02*
X1771Y416D01*
G04 End of Copper0*
M02*