G04 MADE WITH FRITZING*
G04 WWW.FRITZING.ORG*
G04 DOUBLE SIDED*
G04 HOLES PLATED*
G04 CONTOUR ON CENTER OF CONTOUR VECTOR*
%ASAXBY*%
%FSLAX23Y23*%
%MOIN*%
%OFA0B0*%
%SFA1.0B1.0*%
%ADD10C,0.090000*%
%ADD11C,0.080000*%
%ADD12C,0.085000*%
%ADD13C,0.135984*%
%ADD14C,0.088000*%
%ADD15C,0.033622*%
%ADD16R,0.090000X0.090000*%
%ADD17R,0.079972X0.080000*%
%ADD18R,0.085000X0.085000*%
%LNMASK0*%
G90*
G70*
G54D10*
X271Y657D03*
X271Y857D03*
G54D11*
X1297Y153D03*
X1297Y253D03*
X1297Y353D03*
X1297Y453D03*
X1297Y553D03*
X1297Y653D03*
X1297Y753D03*
X1297Y853D03*
X1297Y953D03*
X1297Y1053D03*
X1297Y1153D03*
X1297Y1253D03*
X1297Y1353D03*
X1297Y1453D03*
X1297Y1553D03*
X697Y153D03*
X697Y253D03*
X697Y353D03*
X697Y453D03*
X697Y553D03*
X697Y653D03*
X697Y753D03*
X697Y853D03*
X697Y953D03*
X697Y1053D03*
X697Y1153D03*
X697Y1253D03*
X697Y1353D03*
X697Y1453D03*
X697Y1553D03*
X2610Y153D03*
X2610Y253D03*
X2610Y353D03*
X2610Y453D03*
X2610Y553D03*
X2610Y653D03*
X2610Y753D03*
X2610Y853D03*
X2610Y953D03*
X2610Y1053D03*
X2610Y1153D03*
X2610Y1253D03*
X2610Y1353D03*
X2610Y1453D03*
X2610Y1553D03*
X2010Y153D03*
X2010Y253D03*
X2010Y353D03*
X2010Y453D03*
X2010Y553D03*
X2010Y653D03*
X2010Y753D03*
X2010Y853D03*
X2010Y953D03*
X2010Y1053D03*
X2010Y1153D03*
X2010Y1253D03*
X2010Y1353D03*
X2010Y1453D03*
X2010Y1553D03*
G54D12*
X2755Y1258D03*
X2755Y1658D03*
X539Y1658D03*
X539Y1258D03*
G54D10*
X3021Y857D03*
X3021Y657D03*
X271Y1357D03*
X271Y1557D03*
X3021Y1557D03*
X3021Y1357D03*
X1759Y252D03*
X1559Y252D03*
G54D13*
X3159Y122D03*
X134Y122D03*
X3159Y1911D03*
X134Y1911D03*
G54D14*
X1664Y1660D03*
X1664Y1560D03*
X1664Y1460D03*
X1664Y1360D03*
X1664Y1260D03*
X1664Y1160D03*
X1664Y1060D03*
X1664Y960D03*
X1664Y860D03*
X321Y407D03*
X221Y407D03*
X121Y407D03*
G54D12*
X1614Y649D03*
X1714Y649D03*
G54D15*
X1471Y1357D03*
G54D16*
X271Y657D03*
G54D17*
X1297Y153D03*
X2610Y153D03*
G54D16*
X3021Y857D03*
X271Y1357D03*
X3021Y1557D03*
X1759Y252D03*
G54D18*
X1614Y649D03*
G04 End of Mask0*
M02*