; NON-PLATED HOLES START AT T1
; THROUGH (PLATED) HOLES START AT T100
M48
INCH
T1C0.125984
T100C0.036000
T101C0.040000
T102C0.015748
T103C0.035000
T104C0.038000
%
T1
X031590Y019109
X001336Y001224
X031590Y001224
X001336Y019109
T100
X020097Y010531
X026097Y007531
X026097Y013531
X026097Y012531
X006967Y003531
X020097Y013531
X012967Y002531
X006967Y007531
X020097Y002531
X026097Y009531
X026097Y005531
X012967Y005531
X020097Y012531
X020097Y008531
X012967Y010531
X012967Y015531
X020097Y011531
X020097Y007531
X012967Y001531
X006967Y015531
X012967Y004531
X012967Y011531
X006967Y011531
X012967Y013531
X006967Y009531
X020097Y005531
X026097Y014531
X006967Y008531
X006967Y002531
X012967Y008531
X026097Y006531
X006967Y004531
X006967Y010531
X026097Y003531
X012967Y012531
X026097Y011531
X020097Y004531
X012967Y014531
X026097Y008531
X012967Y009531
X006967Y012531
X020097Y009531
X026097Y004531
X012967Y003531
X020097Y001531
X026097Y001531
X006967Y013531
X006967Y001531
X006967Y014531
X006967Y005531
X020097Y014531
X020097Y003531
X020097Y015531
X026097Y015531
X026097Y010531
X026097Y002531
X006967Y006531
X012967Y007531
X020097Y006531
X012967Y006531
T101
X017586Y002522
X030209Y006572
X002709Y006572
X002709Y015572
X015586Y002522
X002709Y013572
X002709Y008572
X030209Y015572
X030209Y008572
X030209Y013572
T102
X014709Y013572
T103
X005387Y016576
X027550Y012576
X017136Y006489
X016136Y006489
X005387Y012576
X027550Y016576
T104
X016636Y010603
X016636Y011603
X016636Y013603
X016636Y014603
X002209Y004072
X016636Y009603
X016636Y015603
X001209Y004072
X003209Y004072
X016636Y016603
X016636Y012603
X016636Y008603
T00
M30
